<svg width="100" height="100" viewBox="0 0 100 100" fill="none" xmlns="http://www.w3.org/2000/svg">
    <g clip-path="url(#clip0_32_51)">
        <path
            d="M43.3 39.6C42.7 42.1 39.6 40.7 40.9 41L21.2 36C20.1 35.7 19.5 34.6 19.8 33.6C20.1 32.5 21.2 31.9 22.2 32.2L41.9 37.3C42.9 37.5 43.5 38.6 43.3 39.6ZM41.8 50.6L22.1 45.5C21 45.2 19.9 45.9 19.7 46.9C19.4 48 20.1 49.1 21.1 49.3L40.8 54.4C39.5 54.1 42.6 55.3 43.2 53C43.5 52 42.9 50.9 41.8 50.6ZM35.9 62.3L22.1 58.7C21 58.4 19.9 59.1 19.7 60.1C19.4 61.2 20.1 62.3 21.1 62.5L34.9 66.1C33.6 65.8 36.7 67 37.3 64.7C37.6 63.7 37 62.6 35.9 62.3ZM90 19V71.5C90 72.4 89.4 73.2 88.5 73.4L50.5 82.9C50.2 83 49.8 83 49.5 82.9L11.5 73.4C10.6 73.2 10 72.4 10 71.5V19C10 17.7 11.2 16.7 12.5 17.1L50 26.5L87.5 17.1C88.8 16.7 90 17.7 90 19ZM48 30.1L14 21.6V69.9L48 78.4V30.1ZM86 21.6L52 30.1V78.4L86 69.9V21.6ZM80.2 33.6C79.9 32.5 78.8 31.9 77.8 32.2L58.1 37.3C57 37.6 56.4 38.7 56.7 39.7C57.3 42.2 60.4 40.8 59.1 41.1L78.8 36C79.9 35.7 80.5 34.6 80.2 33.6ZM80.2 47C79.9 45.9 78.8 45.3 77.8 45.6L58.1 50.7C57 51 56.4 52.1 56.7 53.1C57.3 55.5 60.4 54.2 59.1 54.5L78.8 49.4C79.9 49.1 80.5 48 80.2 47ZM74.3 61.7C74 60.6 72.9 60 71.9 60.3L58.1 63.9C57 64.2 56.4 65.3 56.7 66.3C57.3 68.8 60.4 67.4 59.1 67.7L72.9 64.2C74 63.9 74.6 62.8 74.3 61.7Z"
            fill="currentColor" />
        <path d="M1644 -930V754H-140V-930H1644ZM1652 -938H-148V762H1652V-938Z" fill="#currentColor" />
    </g>
    <defs>
        <clipPath id="clip0_32_51">
            <rect width="100" height="100" fill="currentColor" />
        </clipPath>
    </defs>
</svg>