<svg width="70" height="70" viewBox="0 0 70 70" fill="none" xmlns="http://www.w3.org/2000/svg">
<path d="M22.165 42.5579V27.7485H22.9689V30.0782C23.0639 29.975 23.1516 29.8653 23.2314 29.75C23.5599 29.0682 24.076 28.494 24.7191 28.095C25.3623 27.6959 26.1059 27.4885 26.8627 27.4969C28.6947 27.4422 30.1822 28.1204 31.0572 29.75C31.614 30.7624 31.9204 31.8934 31.9508 33.0483C31.9813 34.2033 31.7349 35.3488 31.2322 36.3891C30.4174 38.2157 28.4049 39.1235 26.2502 38.7899C25.5797 38.7328 24.9341 38.5087 24.3724 38.138C23.8108 37.7674 23.3508 37.262 23.0346 36.668V42.5579H22.165ZM22.9689 32.9875C23.04 33.7094 23.0674 34.2235 23.1494 34.7266C23.4666 36.7063 24.6369 37.8821 26.4744 38.0954C27.3372 38.2372 28.2225 38.0754 28.9794 37.6376C29.7362 37.1999 30.3179 36.5132 30.6252 35.6946C30.9783 34.8526 31.1482 33.9451 31.1237 33.0324C31.0992 32.1197 30.8808 31.2227 30.483 30.4008C30.155 29.6671 29.5972 29.0601 28.8937 28.6714C28.1903 28.2827 27.3795 28.1334 26.5838 28.2461C25.8367 28.3003 25.125 28.5858 24.5477 29.0632C23.9705 29.5405 23.5562 30.1858 23.3627 30.9094C23.1914 31.5939 23.0599 32.2878 22.9689 32.9875V32.9875ZM48.3494 35C48.2276 36.0427 47.7313 37.0057 46.9527 37.7098C46.1741 38.414 45.1662 38.8114 44.1166 38.8282C40.7479 38.9977 39.1674 36.761 38.9158 34.1797C38.7412 32.778 38.9688 31.3555 39.5721 30.0782C39.9922 29.202 40.6802 28.4823 41.5365 28.0231C42.3929 27.564 43.3731 27.3893 44.3354 27.5243C45.2502 27.6018 46.1174 27.9652 46.8142 28.5629C47.5111 29.1606 48.0023 29.9624 48.2182 30.8547C48.3893 31.6674 48.5153 32.489 48.5955 33.3157H39.7416C39.5775 35.6563 40.8354 37.5375 42.6182 37.9915C44.8385 38.5383 46.7361 37.5758 47.4252 35.4649C47.5783 34.9235 47.8572 34.8469 48.3494 35V35ZM39.7416 32.5665H47.6549C47.6057 30.0727 46.0525 28.268 43.9471 28.2407C41.5627 28.2024 39.8455 29.9415 39.7416 32.5665ZM49.9791 35.0547H50.7557C50.7843 35.6261 50.97 36.1786 51.2923 36.6513C51.6145 37.1241 52.0608 37.4988 52.5822 37.7344C53.2369 38.0291 53.9497 38.1722 54.6674 38.1533C55.3851 38.1344 56.0893 37.9538 56.7275 37.625C57.0754 37.4682 57.3667 37.2085 57.5623 36.8809C57.7579 36.5533 57.8483 36.1736 57.8213 35.793C57.8413 35.426 57.7411 35.0624 57.5358 34.7574C57.3305 34.4525 57.0314 34.2228 56.6838 34.1032C55.8307 33.786 54.9229 33.611 54.0533 33.3321C53.1486 33.0744 52.2639 32.7509 51.4064 32.3641C50.0064 31.6805 49.9189 29.0172 51.5049 28.175C52.317 27.7168 53.2309 27.4692 54.1632 27.4549C55.0955 27.4405 56.0166 27.6599 56.8424 28.093C57.3426 28.3695 57.7467 28.7919 58.0007 29.3038C58.2548 29.8158 58.3467 30.3931 58.2643 30.9586H57.5971C57.5971 30.9258 57.5369 30.8985 57.5369 30.8657C57.4549 28.7383 55.6721 28.0821 53.758 28.268C53.1866 28.3385 52.6316 28.5068 52.1174 28.7657C51.8084 28.907 51.551 29.1407 51.3805 29.4346C51.2101 29.7284 51.135 30.068 51.1658 30.4063C51.1668 30.7448 51.2724 31.0747 51.4682 31.3508C51.664 31.6269 51.9404 31.8357 52.2596 31.9485C53.1018 32.2547 53.9822 32.4516 54.8463 32.6922C55.5408 32.8836 56.2627 33.0094 56.9354 33.2391C57.4101 33.3947 57.8264 33.6909 58.1292 34.0883C58.4319 34.4858 58.6068 34.9658 58.6307 35.4649C58.7118 36.0117 58.6187 36.5702 58.3644 37.061C58.1102 37.5519 57.7077 37.9501 57.2143 38.1993C55.3877 39.2329 52.3799 38.9594 51.04 37.6524C50.7005 37.3109 50.4319 36.9055 50.2498 36.4597C50.0677 36.0138 49.9757 35.5363 49.9791 35.0547ZM68.4744 30.9586H67.7471C67.7471 30.8602 67.7088 30.7727 67.6979 30.6907C67.6861 30.1455 67.4873 29.6209 67.1349 29.2047C66.7824 28.7886 66.2977 28.5062 65.7619 28.4047C64.7509 28.1147 63.6724 28.1666 62.6939 28.5524C62.3072 28.6633 61.9667 28.8963 61.7232 29.2166C61.4798 29.5369 61.3465 29.9274 61.3432 30.3297C61.3296 30.7249 61.4527 31.1126 61.6918 31.4274C61.931 31.7422 62.2714 31.9649 62.6557 32.0579C63.7494 32.3969 64.8705 32.6047 65.9807 32.911C66.3404 32.9973 66.6947 33.1051 67.0416 33.2336C67.5596 33.419 68.0097 33.7563 68.333 34.2015C68.6563 34.6466 68.8378 35.179 68.8537 35.7289C68.8697 36.2789 68.7193 36.8209 68.4224 37.284C68.1254 37.7472 67.6957 38.11 67.1893 38.325C66.4175 38.6755 65.5811 38.8609 64.7335 38.8694C63.886 38.8778 63.046 38.7092 62.2674 38.3743C61.6271 38.0981 61.0868 37.6324 60.7192 37.0399C60.3515 36.4474 60.1742 35.7565 60.2111 35.0602H60.9221C61.0536 35.6947 61.3378 36.2876 61.7501 36.7876C62.1624 37.2875 62.6903 37.6794 63.2882 37.9294C63.8861 38.1793 64.5359 38.2797 65.1813 38.2219C65.8268 38.1641 66.4484 37.9499 66.9924 37.5977C67.3238 37.4255 67.5988 37.162 67.7849 36.8382C67.971 36.5145 68.0604 36.1441 68.0424 35.7711C68.0589 35.4039 67.9551 35.0412 67.7469 34.7383C67.5386 34.4353 67.2373 34.2085 66.8885 34.0922C66.0354 33.775 65.1275 33.6055 64.258 33.3266C63.3481 33.0729 62.458 32.7531 61.5947 32.3696C60.2275 31.6969 60.1182 29.0555 61.6768 28.2133C62.4989 27.7359 63.4307 27.4794 64.3813 27.4688C65.332 27.4583 66.2692 27.6941 67.1018 28.1532C67.5779 28.4374 67.9611 28.8539 68.2048 29.352C68.4485 29.8501 68.5422 30.4083 68.4744 30.9586V30.9586ZM20.8361 38.5602C20.5498 38.6686 20.2337 38.6684 19.9475 38.5596C19.6613 38.4507 19.4249 38.2409 19.283 37.9696C18.3916 36.6352 17.4072 35.361 16.4611 34.0594L16.051 33.5125C14.9244 35.0219 13.7979 36.4711 12.7697 37.975C12.6358 38.2343 12.4122 38.4361 12.1405 38.5427C11.8689 38.6493 11.5677 38.6536 11.2932 38.5547L15.5205 32.8836L11.5885 27.7594C11.8715 27.6572 12.1812 27.6558 12.4651 27.7555C12.7491 27.8551 12.9899 28.0497 13.1471 28.3063C14.0604 29.6407 15.0721 30.9149 16.0783 32.2657C17.09 30.9258 18.0908 29.6461 19.026 28.3227C19.1607 28.0676 19.3844 27.871 19.6546 27.7702C19.9249 27.6693 20.2228 27.6713 20.4916 27.7758L18.9658 29.7993C18.2822 30.7016 17.6096 31.6094 16.8986 32.4899C16.8413 32.5412 16.7955 32.604 16.7641 32.6742C16.7328 32.7444 16.7166 32.8204 16.7166 32.8973C16.7166 32.9742 16.7328 33.0502 16.7641 33.1204C16.7955 33.1906 16.8413 33.2534 16.8986 33.3047C18.2057 35.0383 19.5018 36.7774 20.8361 38.5602V38.5602ZM38.7846 27.7047V28.4704C38.2315 28.4341 37.6769 28.5142 37.1566 28.7055C36.6364 28.8968 36.1621 29.1951 35.7642 29.5811C35.3664 29.967 35.0539 30.4322 34.8469 30.9464C34.64 31.4606 34.5432 32.0125 34.5627 32.5665V38.5821H33.7807V27.7485H34.5463V29.9688C35.4924 28.35 36.9525 27.7485 38.7846 27.7047V27.7047ZM1.16504 32.8125C1.27988 32.2657 1.35098 31.6696 1.50957 31.1118C2.45566 27.7485 6.31113 26.3485 8.96348 28.4321C10.5166 29.6516 10.9049 31.3797 10.8283 33.3266H2.07832C1.93613 36.8047 4.44629 38.9047 7.65645 37.8329C8.17718 37.6466 8.64333 37.3336 9.01282 36.9221C9.38232 36.5106 9.64352 36.0135 9.77285 35.4758C9.94238 34.929 10.2158 34.836 10.7354 34.9946C10.6498 35.6603 10.4144 36.2981 10.0469 36.8598C9.67934 37.4215 9.18926 37.8925 8.61348 38.2375C7.66213 38.7578 6.57065 38.9639 5.49511 38.8264C4.41957 38.6889 3.41505 38.2148 2.6252 37.4719C1.8438 36.5933 1.37132 35.4832 1.27988 34.311C1.27988 34.125 1.20879 33.9391 1.17051 33.7641C1.16686 33.4396 1.16504 33.1224 1.16504 32.8125V32.8125ZM2.08926 32.5774H10.0025C9.95332 30.0563 8.36191 28.268 6.24004 28.2516C3.87754 28.2188 2.1877 29.9688 2.08379 32.5665L2.08926 32.5774Z" fill="white"/>
</svg>
