<svg width="49" height="49" viewBox="0 0 49 49" fill="none" xmlns="http://www.w3.org/2000/svg">
<path d="M0 0V48.8281H48.8281V0H0ZM25.8277 41.6066C25.107 43.0711 23.7313 44.0332 22.1371 44.4977C19.6875 45.0602 17.3445 44.7395 15.6016 43.6934C14.4352 42.9777 13.5242 41.8762 12.9059 40.607L16.6246 38.3297C16.657 38.3434 16.7547 38.5199 16.8852 38.748C17.3594 39.5426 17.7684 40.1051 18.5723 40.5C19.3621 40.7695 21.0961 40.9418 21.7656 39.552C22.1746 38.8449 22.0445 36.5723 22.0445 34.0578C22.0441 30.1066 22.0625 26.1719 22.0625 22.2656H26.6363C26.6363 26.5625 26.6598 30.632 26.6363 34.825C26.6461 37.3953 26.8691 39.6867 25.8277 41.6066ZM44.802 40.3145C43.2121 45.7527 34.348 45.9293 30.8059 42.3363C30.0574 41.4906 29.5883 41.0488 29.1418 40.0727C31.0242 38.9898 31.0242 38.9898 32.8559 37.9301C33.8508 39.4594 34.7707 40.3004 36.4258 40.6445C38.6711 40.9188 40.9301 40.1473 40.4234 37.7625C39.9027 35.8148 35.8258 35.341 33.0512 33.2582C30.2344 31.3664 29.5742 26.7695 31.8891 24.143C32.6605 23.1715 33.9762 22.4465 35.3566 22.098L36.7973 21.9117C39.5633 21.8559 41.2922 22.5863 42.5613 24.0035C42.9145 24.3613 43.2027 24.7473 43.7418 25.5836C42.2684 26.5227 42.273 26.5137 40.1625 27.8801C39.7117 26.909 38.9637 26.2996 38.173 26.0348C36.9457 25.6629 35.398 26.0672 35.077 27.3641C34.9656 27.7637 34.9887 28.1355 35.1656 28.7957C35.6629 29.9297 37.3316 30.4227 38.8285 31.1105C43.1375 32.8582 44.5926 34.732 44.9504 36.9625C45.2949 38.8828 44.8672 40.1285 44.802 40.3145Z" fill="#F0DB4F"/>
</svg>
