<svg width="70" height="70" viewBox="0 0 70 70" fill="none" xmlns="http://www.w3.org/2000/svg">
<path d="M62.5215 44.1596C62.3629 44.1596 62.2054 44.1181 62.0665 44.0371L60.6172 43.1796C60.4007 43.0588 60.5062 43.0156 60.5779 42.9909C60.8666 42.8903 60.9251 42.8668 61.233 42.6929C61.2653 42.6749 61.3074 42.6814 61.3408 42.7011L62.4536 43.3623C62.4743 43.3733 62.4975 43.3791 62.5209 43.3791C62.5444 43.3791 62.5675 43.3733 62.5882 43.3623L66.9287 40.857C66.9492 40.845 66.9661 40.8278 66.9778 40.8072C66.9895 40.7865 66.9956 40.7632 66.9954 40.7395V35.7301C66.9955 35.706 66.9893 35.6824 66.9775 35.6614C66.9657 35.6404 66.9487 35.6228 66.9282 35.6103L62.5893 33.1073C62.5688 33.096 62.5457 33.0901 62.5223 33.0901C62.4989 33.0901 62.4758 33.096 62.4553 33.1073L58.1169 35.6109C58.0964 35.6233 58.0793 35.6408 58.0673 35.6616C58.0554 35.6825 58.0489 35.706 58.0486 35.7301V40.7395C58.0486 40.7876 58.0754 40.833 58.1169 40.8554L59.3058 41.5428C59.9512 41.8649 60.3465 41.4854 60.3465 41.1037V36.1572C60.3465 36.0877 60.4029 36.0325 60.4723 36.0325H61.023C61.0914 36.0325 61.1483 36.0877 61.1483 36.1572V41.1037C61.1483 41.9645 60.6796 42.4583 59.8631 42.4583C59.6121 42.4583 59.4147 42.4583 58.8634 42.187L57.7254 41.5319C57.5869 41.4512 57.4721 41.3356 57.3922 41.1967C57.3124 41.0577 57.2704 40.9003 57.2704 40.74V35.7306C57.2704 35.4052 57.4437 35.1017 57.7254 34.9399L62.0659 32.4313C62.2058 32.3552 62.3625 32.3153 62.5217 32.3153C62.681 32.3153 62.8377 32.3552 62.9776 32.4313L67.3181 34.9399C67.5992 35.1023 67.7737 35.4058 67.7737 35.7306V40.74C67.7734 40.9003 67.7312 41.0577 67.6513 41.1966C67.5714 41.3355 67.4565 41.4511 67.3181 41.5319L62.9776 44.0377C62.839 44.118 62.6816 44.1601 62.5215 44.1596ZM63.8629 40.7083C61.9626 40.7083 61.565 39.836 61.565 39.1049C61.5651 39.0716 61.5784 39.0397 61.602 39.0163C61.6256 38.9928 61.6575 38.9796 61.6908 38.9796H62.2519C62.2819 38.9795 62.311 38.9901 62.3338 39.0096C62.3567 39.0291 62.3718 39.0561 62.3765 39.0857C62.4608 39.6572 62.714 39.9454 63.8629 39.9454C64.7768 39.9454 65.1662 39.7387 65.1662 39.2531C65.1662 38.9731 65.0557 38.7658 63.6349 38.6263C62.4471 38.5088 61.7126 38.2468 61.7126 37.2958C61.7126 36.4202 62.4509 35.8974 63.6879 35.8974C65.0787 35.8974 65.7666 36.3803 65.8536 37.4161C65.8549 37.4335 65.8527 37.4511 65.8471 37.4676C65.8415 37.4842 65.8325 37.4994 65.8208 37.5124C65.8089 37.5248 65.7946 37.5347 65.7789 37.5416C65.7631 37.5484 65.7461 37.5521 65.7289 37.5523H65.1651C65.1366 37.5523 65.109 37.5426 65.0868 37.5248C65.0646 37.507 65.0492 37.4822 65.0431 37.4544C64.9075 36.8528 64.5794 36.6609 63.6874 36.6609C62.6894 36.6609 62.5734 37.0092 62.5734 37.269C62.5734 37.5845 62.7101 37.6764 64.0582 37.8547C65.392 38.0313 66.0258 38.2807 66.0258 39.2186C66.0264 40.1663 65.2378 40.7083 63.8629 40.7083M53.5839 37.4227C53.7551 37.3226 53.8606 37.1399 53.8606 36.9414V35.6541C53.8606 35.4561 53.7556 35.2734 53.5839 35.1734L49.0098 32.5177C48.9252 32.4686 48.8292 32.4426 48.7313 32.4424C48.6335 32.4422 48.5373 32.4678 48.4526 32.5166L43.8501 35.1739C43.7657 35.2228 43.6956 35.2929 43.6468 35.3774C43.5981 35.4619 43.5723 35.5576 43.5722 35.6552V40.9686C43.5722 41.1682 43.6794 41.3531 43.8533 41.452L48.4269 44.0579C48.5953 44.1547 48.802 44.1552 48.9721 44.0612L51.7382 42.5234C51.7812 42.4995 51.8172 42.4646 51.8423 42.4222C51.8674 42.3799 51.8809 42.3316 51.8812 42.2823C51.8815 42.2331 51.8688 42.1846 51.8442 42.1419C51.8197 42.0993 51.7842 42.0639 51.7415 42.0394L47.1105 39.3816C47.068 39.3574 47.0327 39.3224 47.0081 39.2801C46.9836 39.2378 46.9706 39.1898 46.9705 39.1409V37.4752C46.9705 37.3756 47.0236 37.2843 47.1094 37.2351L48.5515 36.4038C48.5937 36.3794 48.6415 36.3665 48.6902 36.3665C48.7389 36.3665 48.7867 36.3794 48.8288 36.4038L50.2709 37.2351C50.3132 37.2593 50.3484 37.2943 50.3729 37.3364C50.3973 37.3786 50.4103 37.4264 50.4104 37.4752V38.7855C50.4101 38.8345 50.4228 38.8827 50.4472 38.9252C50.4716 38.9677 50.5068 39.0029 50.5493 39.0274C50.5917 39.0518 50.6399 39.0646 50.6889 39.0644C50.7379 39.0641 50.7859 39.0509 50.8282 39.0261L53.5839 37.4227M48.6631 37.1733C48.6794 37.1642 48.6978 37.1594 48.7164 37.1594C48.7351 37.1594 48.7534 37.1642 48.7697 37.1733L49.6529 37.6835C49.6858 37.7027 49.706 37.7382 49.706 37.7759V38.7959C49.706 38.8342 49.6858 38.8691 49.6529 38.8883L48.7697 39.398C48.7536 39.4074 48.7352 39.4124 48.7164 39.4124C48.6977 39.4124 48.6793 39.4074 48.6631 39.398L47.7804 38.8883C47.7641 38.879 47.7506 38.8656 47.7412 38.8493C47.7318 38.8331 47.7268 38.8146 47.7269 38.7959V37.7759C47.7269 37.7382 47.7471 37.7027 47.7804 37.6835L48.6631 37.1733ZM36.686 39.2952C36.686 39.3444 36.6597 39.3903 36.6165 39.4155L35.0361 40.3266C35.015 40.3389 34.991 40.3454 34.9666 40.3454C34.9422 40.3454 34.9182 40.3389 34.8972 40.3266L33.3167 39.4155C33.2956 39.4032 33.2781 39.3857 33.2659 39.3646C33.2537 39.3435 33.2473 39.3195 33.2472 39.2952V37.4697C33.2472 37.4205 33.274 37.374 33.3167 37.3488L34.8972 36.4366C34.9182 36.424 34.9423 36.4174 34.9669 36.4174C34.9915 36.4174 35.0156 36.424 35.0366 36.4366L36.6176 37.3488C36.6386 37.3613 36.6559 37.379 36.668 37.4002C36.6801 37.4214 36.6865 37.4453 36.6865 37.4697V39.2952H36.686ZM37.1131 25.7786C37.0707 25.7554 37.0231 25.7437 36.9748 25.7444C36.9265 25.7452 36.8792 25.7584 36.8376 25.7829C36.7959 25.8073 36.7614 25.8422 36.7372 25.884C36.713 25.9258 36.7001 25.9731 36.6997 26.0214V33.0843C36.6995 33.1184 36.6905 33.1518 36.6736 33.1813C36.6566 33.2109 36.6322 33.2355 36.6029 33.2527C36.5732 33.2697 36.5397 33.2786 36.5055 33.2786C36.4714 33.2786 36.4378 33.2697 36.4082 33.2527L35.2554 32.5883C35.171 32.5397 35.0752 32.5141 34.9778 32.5141C34.8804 32.5141 34.7847 32.5397 34.7003 32.5883L30.0967 35.245C30.0121 35.2938 29.9419 35.3641 29.893 35.4486C29.8442 35.5332 29.8184 35.6291 29.8183 35.7268V41.0419C29.8183 41.2404 29.9244 41.4236 30.0962 41.5237L34.6997 44.182C34.8715 44.2816 35.0837 44.2816 35.2559 44.182L39.8606 41.5237C39.945 41.4747 40.0151 41.4044 40.0638 41.3199C40.1126 41.2353 40.1383 41.1395 40.1384 41.0419V27.7927C40.1384 27.5915 40.029 27.4056 39.8535 27.3071L37.1131 25.7786M20.9114 32.4882C20.9958 32.4393 21.0916 32.4136 21.1892 32.4136C21.2868 32.4136 21.3826 32.4393 21.467 32.4882L26.0706 35.1444C26.2423 35.2439 26.3484 35.4277 26.3484 35.6262V40.9429C26.3484 41.1414 26.2423 41.3252 26.0706 41.4247L21.4676 44.0831C21.383 44.1317 21.2871 44.1573 21.1895 44.1573C21.0919 44.1573 20.996 44.1317 20.9114 44.0831L16.3094 41.4247C16.225 41.3757 16.155 41.3054 16.1062 41.2209C16.0575 41.1363 16.0317 41.0405 16.0316 40.9429V35.6256C16.0316 35.4277 16.1377 35.2439 16.3094 35.1444L20.9114 32.4882M12.5398 35.5819C12.5398 35.3817 12.4348 35.198 12.262 35.099L7.66006 32.4505C7.58277 32.4057 7.4956 32.3807 7.40631 32.3777H7.35873C7.26945 32.3808 7.18229 32.4057 7.10498 32.4505L2.50248 35.099C2.41781 35.148 2.34752 35.2184 2.29866 35.3032C2.24981 35.3879 2.2241 35.4841 2.22412 35.5819L2.23396 42.7131C2.23396 42.8127 2.28592 42.9051 2.37287 42.9532C2.41451 42.9785 2.46227 42.9918 2.51096 42.9918C2.55965 42.9918 2.60741 42.9785 2.64904 42.9532L5.38342 41.387C5.55623 41.2841 5.66178 41.1031 5.66178 40.9046V37.5731C5.66178 37.374 5.76678 37.1908 5.93904 37.0913L7.10389 36.4208C7.18808 36.3713 7.28405 36.3454 7.3817 36.3459C7.47686 36.3459 7.5742 36.3699 7.65897 36.4208L8.82271 37.0913C8.99498 37.1908 9.10107 37.374 9.10107 37.5731V40.9046C9.10107 41.1031 9.20771 41.2852 9.37943 41.387L12.1138 42.9532C12.156 42.9773 12.2037 42.9899 12.2523 42.9898C12.3008 42.9897 12.3485 42.9768 12.3906 42.9526C12.4326 42.9283 12.4676 42.8934 12.4919 42.8514C12.5163 42.8094 12.5292 42.7617 12.5294 42.7131L12.5398 35.5819" fill="#83CD29"/>
</svg>
