<svg width="24" height="24" viewBox="0 0 24 24" fill="none" xmlns="http://www.w3.org/2000/svg">
    <path fill-rule="evenodd" clip-rule="evenodd"
        d="M18.165 2.765L18.42 2.797C19.094 2.89 19.986 3.015 20.491 3.521C20.905 3.934 21.064 4.606 21.159 5.206L21.215 5.592C21.341 6.502 21.374 7.694 21.159 9.018C20.735 11.631 19.344 14.749 15.851 17.163C15.832 17.351 15.831 17.541 15.835 17.731L15.845 18.015C15.861 18.452 15.877 18.889 15.755 19.313C15.565 19.973 14.888 20.408 14.255 20.72L13.945 20.867L13.545 21.043C12.797 21.361 11.787 21.687 11.154 21.053C10.774 20.674 10.618 20.118 10.491 19.565L10.444 19.358C10.3903 19.0968 10.3235 18.8385 10.244 18.584C10.194 18.4373 10.14 18.289 10.082 18.139C10.0182 18.2174 9.95041 18.2925 9.879 18.364C9.534 18.709 9.019 18.95 8.595 19.119C8.132 19.302 7.608 19.462 7.123 19.594L6.874 19.66L6.397 19.779L5.965 19.879L5.448 19.989L5.125 20.052C4.96391 20.0818 4.79798 20.072 4.64153 20.0234C4.48507 19.9748 4.34279 19.8889 4.22694 19.7731C4.1111 19.6572 4.02517 19.5149 3.97658 19.3585C3.92798 19.202 3.91817 19.0361 3.948 18.875L4.034 18.444L4.188 17.746L4.312 17.236L4.406 16.876C4.538 16.392 4.698 15.868 4.882 15.406C5.05 14.981 5.291 14.466 5.636 14.121L5.716 14.044L5.652 14.018C5.48107 13.9531 5.30797 13.8941 5.133 13.841L4.856 13.756C4.162 13.546 3.42 13.32 2.959 12.858C2.399 12.299 2.588 11.448 2.858 10.74L2.968 10.466L3.145 10.066L3.292 9.756C3.604 9.124 4.039 8.447 4.699 8.257C5.049 8.157 5.413 8.151 5.779 8.161L5.999 8.168C6.285 8.178 6.57 8.189 6.849 8.162C9.263 4.668 12.381 3.277 14.994 2.853C16.0422 2.68107 17.1089 2.65147 18.165 2.765ZM8.353 15.44C8.19566 15.3234 8.00755 15.2555 7.81201 15.2449C7.61646 15.2342 7.42208 15.2812 7.253 15.38L7.143 15.454L7.05 15.537L6.925 15.695C6.665 16.071 6.517 16.591 6.402 17.077L6.294 17.545L6.243 17.758L6.434 17.712L6.852 17.616C7.43 17.481 8.071 17.306 8.465 16.951C8.63631 16.7798 8.73966 16.5522 8.75584 16.3105C8.77202 16.0689 8.69995 15.8295 8.553 15.637L8.471 15.543L8.447 15.52L8.353 15.44ZM15.536 8.466C15.3503 8.28024 15.1299 8.13288 14.8872 8.03233C14.6446 7.93177 14.3845 7.87999 14.1219 7.87995C13.8592 7.8799 13.5991 7.93159 13.3564 8.03206C13.1138 8.13253 12.8933 8.27981 12.7075 8.4655C12.5217 8.65119 12.3744 8.87165 12.2738 9.11429C12.1733 9.35693 12.1215 9.617 12.1214 9.87965C12.1214 10.1423 12.1731 10.4024 12.2736 10.6451C12.374 10.8877 12.5213 11.1082 12.707 11.294C13.082 11.6691 13.5907 11.88 14.1211 11.8801C14.6516 11.8801 15.1603 11.6695 15.5355 11.2945C15.9106 10.9195 16.1215 10.4108 16.1215 9.88035C16.1216 9.34991 15.911 8.84115 15.536 8.466Z"
        fill="currentColor" />
</svg>