<svg width="33" height="33" viewBox="0 0 33 33" fill="none" xmlns="http://www.w3.org/2000/svg">
    <g clip-path="url(#clip0_32_46)">
        <path
            d="M0.847968 26.91C0.427843 27.3293 0.141636 27.8639 0.0256104 28.446C-0.0904156 29.0281 -0.0310384 29.6315 0.196219 30.1799C0.423476 30.7282 0.808384 31.1967 1.30217 31.5261C1.79596 31.8555 2.37641 32.0308 2.96997 32.03C3.36408 32.0307 3.75445 31.9535 4.11862 31.8028C4.48279 31.6522 4.81358 31.431 5.09197 31.152L14.942 21.302L10.698 17.06L0.847968 26.91ZM25.466 8.654L29.752 6.436L32 2.094L29.906 0L25.564 2.248L23.346 6.534L18.122 11.758L20.242 13.878L25.466 8.654ZM26.404 20.04C26.268 20.032 26.138 20 26 20C25.268 20 24.574 20.15 23.926 20.39L11.61 8.074C11.85 7.426 12 6.732 12 6C12 5.862 11.968 5.732 11.96 5.596C11.748 2.474 9.17597 0 5.99997 0C5.07597 0 4.20997 0.226 3.42797 0.6L7.41397 4.586C7.62397 4.796 7.76797 5.044 7.86397 5.306C8.12597 6.016 7.98397 6.842 7.41397 7.414C7.02397 7.804 6.51197 8 5.99997 8C5.76397 8 5.52997 7.948 5.30597 7.864C5.03631 7.76771 4.79068 7.6142 4.58597 7.414L0.599968 3.428C0.209394 4.22941 0.00432096 5.10849 -3.24622e-05 6C-3.24622e-05 9.176 2.47397 11.748 5.59597 11.96C5.73197 11.968 5.86197 12 5.99997 12C6.73197 12 7.42597 11.85 8.07397 11.61L20.39 23.926C20.1374 24.5886 20.0054 25.291 20 26C20 26.138 20.032 26.268 20.04 26.404C20.252 29.526 22.824 32 26 32C26.924 32 27.79 31.774 28.572 31.4L24.586 27.414C24.3851 27.2098 24.2315 26.964 24.136 26.694C24.0013 26.3364 23.9722 25.9477 24.052 25.574C24.1317 25.2004 24.3171 24.8574 24.586 24.586C24.976 24.196 25.488 24 26 24C26.236 24 26.47 24.052 26.694 24.136C26.956 24.234 27.204 24.376 27.414 24.586L31.4 28.572C31.774 27.79 32 26.924 32 26C32 22.824 29.526 20.252 26.404 20.04Z"
            fill="currentColor" />
    </g>
    <defs>
        <clipPath id="clip0_32_46">
            <rect width="32.324" height="32.03" fill="currentColor" />
        </clipPath>
    </defs>
</svg>