<svg width="49" height="49" viewBox="0 0 49 49" fill="none" xmlns="http://www.w3.org/2000/svg">
<path d="M0 24.4141V48.8281H48.8281V0H0V24.4141ZM39.3477 22.4609C40.5171 22.7323 41.5801 23.344 42.4023 24.2188C42.855 24.69 43.2486 25.2147 43.5742 25.7812C43.5742 25.8437 41.4648 27.2695 40.1797 28.0664C40.1328 28.0977 39.9453 27.8945 39.7383 27.5859C39.5037 27.1811 39.1703 26.8423 38.7694 26.6012C38.3684 26.3601 37.9129 26.2245 37.4453 26.207C35.9648 26.1055 35.0117 26.8828 35.0195 28.1602C35.0073 28.4782 35.0801 28.7937 35.2305 29.0742C35.5547 29.75 36.1602 30.1523 38.0586 30.9727C41.5547 32.4766 43.0508 33.4687 43.9805 34.8789C45.0195 36.4414 45.25 38.9648 44.5469 40.832C43.7656 42.8633 41.8516 44.2422 39.1445 44.6992C37.9081 44.8408 36.6589 44.8277 35.4258 44.6602C33.5438 44.3549 31.8078 43.4588 30.4688 42.1016C30.0195 41.6055 29.1445 40.3125 29.1992 40.2187C29.3418 40.1129 29.492 40.0176 29.6484 39.9336L31.4453 38.9023L32.8477 38.0898L33.1406 38.5234C33.6351 39.2307 34.2643 39.8334 34.9922 40.2969C36.5547 41.1172 38.6875 41.0039 39.7422 40.0547C40.0963 39.7069 40.3172 39.2459 40.3665 38.7519C40.4157 38.258 40.2902 37.7625 40.0117 37.3516C39.6211 36.8086 38.8398 36.3516 36.6562 35.3984C34.1367 34.3125 33.0508 33.6406 32.0586 32.5703C31.4392 31.864 30.9819 31.0307 30.7187 30.1289C30.5225 29.0986 30.4935 28.0434 30.6328 27.0039C31.1523 24.5703 32.9766 22.8711 35.6406 22.3672C36.8744 22.2145 38.1241 22.2488 39.3477 22.4688V22.4609ZM27.8867 24.5078V26.5078H21.5469V44.5664H17.0508V26.5039H10.6953V24.5508C10.6783 23.8784 10.6965 23.2056 10.75 22.5352C10.7734 22.5039 14.6563 22.4883 19.3438 22.4961H27.8633L27.8867 24.5078Z" fill="#007ACC"/>
</svg>
