<svg width="50" height="50" viewBox="0 0 50 50" fill="none" xmlns="http://www.w3.org/2000/svg">
<path d="M25.0015 10.0008C18.3347 10.0008 14.1694 13.3328 12.5015 19.9996C15.0007 16.6672 17.9183 15.4176 21.2507 16.2508C23.1534 16.725 24.5132 18.1047 26.019 19.6336C28.4698 22.1207 31.3065 25 37.5015 25C44.1679 25 48.3335 21.6676 50.0015 14.9992C47.5019 18.3336 44.5847 19.5832 41.2519 18.75C39.3495 18.2754 37.9913 16.8961 36.4835 15.3672C34.0343 12.8801 31.1983 10.0008 25.0015 10.0008V10.0008ZM12.5015 25C5.83506 25 1.66943 28.3324 0.00146484 35.0008C2.50068 31.6664 5.41787 30.4168 8.75068 31.25C10.6534 31.7246 12.0132 33.1039 13.519 34.6328C15.9698 37.1199 18.8065 39.9992 25.0015 39.9992C31.6679 39.9992 35.8335 36.6672 37.5015 30.0004C35.0019 33.3328 32.0847 34.5824 28.7519 33.7492C26.8495 33.275 25.4913 31.8953 23.9835 30.3664C21.5343 27.8793 18.6983 25 12.5015 25Z" fill="#38B2AC"/>
</svg>
