<?xml version="1.0" encoding="utf-8"?><svg xmlns="http://www.w3.org/2000/svg" xmlns:xlink="http://www.w3.org/1999/xlink"><symbol fill="none" viewBox="0 0 41 66" id="arrow_icon" xmlns="http://www.w3.org/2000/svg"><path d="M5 5l28 28L5 61" stroke="currentColor" stroke-width="10" stroke-linecap="round"/></symbol><symbol fill="none" viewBox="0 0 100 100" id="book_icon" xmlns="http://www.w3.org/2000/svg"><g clip-path="url(#bclip0_32_51)"><path d="M43.3 39.6c-.6 2.5-3.7 1.1-2.4 1.4l-19.7-5c-1.1-.3-1.7-1.4-1.4-2.4.3-1.1 1.4-1.7 2.4-1.4l19.7 5.1c1 .2 1.6 1.3 1.4 2.3zm-1.5 11l-19.7-5.1c-1.1-.3-2.2.4-2.4 1.4-.3 1.1.4 2.2 1.4 2.4l19.7 5.1c-1.3-.3 1.8.9 2.4-1.4.3-1-.3-2.1-1.4-2.4zm-5.9 11.7l-13.8-3.6c-1.1-.3-2.2.4-2.4 1.4-.3 1.1.4 2.2 1.4 2.4l13.8 3.6c-1.3-.3 1.8.9 2.4-1.4.3-1-.3-2.1-1.4-2.4zM90 19v52.5c0 .9-.6 1.7-1.5 1.9l-38 9.5c-.3.1-.7.1-1 0l-38-9.5c-.9-.2-1.5-1-1.5-1.9V19c0-1.3 1.2-2.3 2.5-1.9L50 26.5l37.5-9.4c1.3-.4 2.5.6 2.5 1.9zM48 30.1l-34-8.5v48.3l34 8.5V30.1zm38-8.5l-34 8.5v48.3l34-8.5V21.6zm-5.8 12c-.3-1.1-1.4-1.7-2.4-1.4l-19.7 5.1c-1.1.3-1.7 1.4-1.4 2.4.6 2.5 3.7 1.1 2.4 1.4L78.8 36c1.1-.3 1.7-1.4 1.4-2.4zm0 13.4c-.3-1.1-1.4-1.7-2.4-1.4l-19.7 5.1c-1.1.3-1.7 1.4-1.4 2.4.6 2.4 3.7 1.1 2.4 1.4l19.7-5.1c1.1-.3 1.7-1.4 1.4-2.4zm-5.9 14.7c-.3-1.1-1.4-1.7-2.4-1.4l-13.8 3.6c-1.1.3-1.7 1.4-1.4 2.4.6 2.5 3.7 1.1 2.4 1.4l13.8-3.5c1.1-.3 1.7-1.4 1.4-2.5z" fill="currentColor"/><path d="M1644-930V754H-140V-930h1784zm8-8H-148V762h1800V-938z" fill="#currentColor"/></g><defs><clipPath id="bclip0_32_51"><path fill="currentColor" d="M0 0h100v100H0z"/></clipPath></defs></symbol><symbol fill="none" viewBox="0 0 50 50" id="css_icon" xmlns="http://www.w3.org/2000/svg"><path d="M3.422.39L7.35 44.487 24.974 49.4l17.673-4.932L46.578.39H3.422zm34.996 10.103l-1.307 14.69.004.079-.006.182v-.001l-.928 10.27-.103.913L25 39.69l-.009.008-11.059-3.081-.748-8.492h5.423l.384 4.318 6.01 1.629-.001.003 6.032-1.653.638-7.031H19.06l-.109-1.189-.246-2.785-.13-1.495H32.15l.494-5.469H11.969l-.108-1.188-.247-2.785-.13-1.496h27.064l-.13 1.509z" fill="#1572B6"/></symbol><symbol fill="none" viewBox="0 0 24 24" id="cv_icon" xmlns="http://www.w3.org/2000/svg"><path d="M12 2l.117.007a1 1 0 01.876.876L13 3v4l.005.15a2 2 0 001.838 1.844L15 9h4l.117.007a1 1 0 01.876.876L20 10v9a3 3 0 01-2.824 2.995L17 22H7a3 3 0 01-2.995-2.824L4 19V5a3 3 0 012.824-2.995L7 2h5zm-2.5 8A2.5 2.5 0 007 12.5v3a2.5 2.5 0 005 0 1 1 0 00-2 0 .5.5 0 01-1 0v-3a.5.5 0 011 0 1 1 0 002 0A2.5 2.5 0 009.5 10zm6.743.03a1 1 0 00-1.213.727l-.53 2.119-.53-2.119a.997.997 0 00-1.215-.734 1.002 1.002 0 00-.725 1.22l1.5 6c.252 1.01 1.688 1.01 1.94 0l1.5-6a1 1 0 00-.727-1.213zm-1.244-7.031L19 7h-4l-.001-4.001z" fill="currentColor"/></symbol><symbol fill="none" viewBox="0 0 70 70" id="express_icon" xmlns="http://www.w3.org/2000/svg"><path d="M22.165 42.558v-14.81h.804v2.33c.095-.103.183-.213.262-.328a3.982 3.982 0 013.632-2.253c1.832-.055 3.32.623 4.194 2.253a7.24 7.24 0 01.175 6.64c-.815 1.826-2.827 2.733-4.982 2.4a4.03 4.03 0 01-3.215-2.122v5.89h-.87zm.804-9.57c.071.721.098 1.236.18 1.739.318 1.98 1.488 3.155 3.325 3.368a3.78 3.78 0 004.151-2.4 6.437 6.437 0 00-.142-5.294 3.702 3.702 0 00-3.9-2.155 3.604 3.604 0 00-3.22 2.663 18.262 18.262 0 00-.394 2.078zM48.349 35a4.33 4.33 0 01-4.232 3.828c-3.37.17-4.95-2.067-5.201-4.648a7.448 7.448 0 01.656-4.102 4.578 4.578 0 014.763-2.554 4.375 4.375 0 013.883 3.33c.171.813.297 1.635.377 2.462h-8.853c-.164 2.34 1.093 4.221 2.876 4.675 2.22.547 4.118-.415 4.807-2.526.153-.542.432-.618.924-.465zm-8.607-2.434h7.913c-.05-2.493-1.602-4.298-3.708-4.325-2.384-.039-4.102 1.7-4.205 4.325zm10.237 2.489h.777a3.11 3.11 0 001.826 2.68 4.774 4.774 0 004.145-.11 1.865 1.865 0 001.094-1.832 1.69 1.69 0 00-1.137-1.69c-.853-.317-1.761-.492-2.63-.77a19.288 19.288 0 01-2.648-.969c-1.4-.683-1.487-3.347.099-4.189a5.584 5.584 0 015.337-.082 2.811 2.811 0 011.422 2.866h-.667c0-.033-.06-.06-.06-.093-.082-2.128-1.865-2.784-3.779-2.598a5.013 5.013 0 00-1.64.498 1.64 1.64 0 00-.952 1.64 1.641 1.641 0 001.094 1.543c.842.306 1.722.503 2.586.743.695.192 1.417.317 2.09.547a2.467 2.467 0 011.695 2.226 2.63 2.63 0 01-1.417 2.734c-1.826 1.034-4.834.76-6.174-.547a3.649 3.649 0 01-1.06-2.597zm18.495-4.096h-.727c0-.099-.038-.186-.05-.268a2.38 2.38 0 00-1.935-2.286 4.775 4.775 0 00-3.068.147 1.865 1.865 0 00-1.35 1.778 1.717 1.717 0 001.312 1.728c1.093.339 2.215.547 3.325.853.36.086.714.194 1.06.323a2.735 2.735 0 01.148 5.091 6.087 6.087 0 01-4.922.05 3.413 3.413 0 01-2.056-3.315h.711a3.987 3.987 0 006.07 2.538 1.952 1.952 0 001.05-1.827 1.69 1.69 0 00-1.154-1.679c-.853-.317-1.76-.486-2.63-.765-.91-.254-1.8-.574-2.663-.957-1.367-.673-1.477-3.314.082-4.157a5.508 5.508 0 015.425-.06 2.86 2.86 0 011.372 2.806zM20.836 38.56a1.253 1.253 0 01-1.553-.59c-.891-1.335-1.876-2.609-2.822-3.91l-.41-.547c-1.127 1.509-2.253 2.958-3.281 4.462a1.202 1.202 0 01-1.477.58l4.228-5.671-3.933-5.125a1.307 1.307 0 011.56.547c.912 1.335 1.924 2.609 2.93 3.96 1.012-1.34 2.013-2.62 2.948-3.943a1.175 1.175 0 011.466-.547l-1.526 2.023c-.684.903-1.356 1.81-2.067 2.69a.547.547 0 000 .816c1.307 1.733 2.603 3.472 3.937 5.255zm17.949-10.855v.765a3.965 3.965 0 00-4.222 4.096v6.016h-.782V27.748h.765v2.22c.946-1.618 2.407-2.22 4.239-2.263zm-37.62 5.108c.115-.547.186-1.143.345-1.701.946-3.363 4.801-4.763 7.453-2.68 1.554 1.22 1.942 2.948 1.865 4.895h-8.75c-.142 3.478 2.368 5.578 5.578 4.506a3.33 3.33 0 002.117-2.357c.17-.547.443-.64.962-.481a4.442 4.442 0 01-2.122 3.242 5.14 5.14 0 01-5.988-.765A5.387 5.387 0 011.28 34.31c0-.186-.071-.372-.11-.547a84.638 84.638 0 01-.005-.952zm.924-.236h7.913c-.049-2.52-1.64-4.309-3.762-4.325-2.362-.033-4.052 1.717-4.156 4.314l.005.011z" fill="#fff"/></symbol><symbol fill="none" viewBox="0 0 50 51" id="figma_icon" xmlns="http://www.w3.org/2000/svg"><path d="M17.773 50.39a8.386 8.386 0 008.399-8.398v-8.398h-8.399a8.386 8.386 0 00-8.398 8.398 8.386 8.386 0 008.398 8.399z" fill="#0ACF83"/><path d="M9.375 25.195a8.386 8.386 0 018.398-8.398h8.399v16.797h-8.399a8.386 8.386 0 01-8.398-8.399z" fill="#A259FF"/><path d="M9.375 8.398A8.386 8.386 0 0117.773 0h8.399v16.797h-8.399a8.386 8.386 0 01-8.398-8.399z" fill="#F24E1E"/><path d="M26.172 0h8.398a8.386 8.386 0 018.399 8.398 8.386 8.386 0 01-8.399 8.399h-8.398V0z" fill="#FF7262"/><path d="M42.969 25.195a8.386 8.386 0 01-8.399 8.399 8.386 8.386 0 01-8.398-8.399 8.386 8.386 0 018.398-8.398 8.386 8.386 0 018.399 8.398z" fill="#1ABCFE"/></symbol><symbol fill="none" viewBox="0 0 20 20" id="git_icon" xmlns="http://www.w3.org/2000/svg"><path d="M10 0A10 10 0 000 10c0 4.42 2.87 8.17 6.84 9.5.5.08.66-.23.66-.5v-1.69c-2.77.6-3.36-1.34-3.36-1.34-.46-1.16-1.11-1.47-1.11-1.47-.91-.62.07-.6.07-.6 1 .07 1.53 1.03 1.53 1.03.87 1.52 2.34 1.07 2.91.83.09-.65.35-1.09.63-1.34-2.22-.25-4.55-1.11-4.55-4.92 0-1.11.38-2 1.03-2.71-.1-.25-.45-1.29.1-2.64 0 0 .84-.27 2.75 1.02.79-.22 1.65-.33 2.5-.33.85 0 1.71.11 2.5.33 1.91-1.29 2.75-1.02 2.75-1.02.55 1.35.2 2.39.1 2.64.65.71 1.03 1.6 1.03 2.71 0 3.82-2.34 4.66-4.57 4.91.36.31.69.92.69 1.85V19c0 .27.16.59.67.5C17.14 18.16 20 14.42 20 10A10 10 0 0010 0z" fill="currentColor"/></symbol><symbol fill="none" viewBox="0 0 44 50" id="html_icon" xmlns="http://www.w3.org/2000/svg"><path d="M0 0l3.986 44.662 17.889 4.941 17.937-4.935L43.802 0H0zm35.511 10.574l-.25 2.858-.11 1.31H14.168l.5 5.578h19.985l-.134 1.383-1.288 14.391-.095.905L21.9 40.086v.001l-.013.007-11.227-2.957-.762-8.45h5.504l.39 4.351 6.091 1.626h.017v-.218l6.118-1.543.64-7.005H9.653L8.306 10.711l-.131-1.547h27.468l-.132 1.41z" fill="#E44D26"/></symbol><symbol fill="none" viewBox="0 0 49 49" id="js_icon" xmlns="http://www.w3.org/2000/svg"><path d="M0 0v48.828h48.828V0H0zm25.828 41.607c-.721 1.464-2.097 2.426-3.69 2.89-2.45.563-4.794.242-6.536-.804-1.167-.715-2.078-1.817-2.696-3.086l3.719-2.277c.032.013.13.19.26.418.474.795.883 1.357 1.687 1.752.79.27 2.524.442 3.194-.948.409-.707.279-2.98.279-5.494 0-3.951.017-7.886.017-11.792h4.574c0 4.297.024 8.366 0 12.559.01 2.57.233 4.862-.808 6.782zm18.974-1.292c-1.59 5.438-10.454 5.614-13.996 2.021-.749-.845-1.218-1.287-1.664-2.263 1.882-1.083 1.882-1.083 3.714-2.143.995 1.53 1.915 2.37 3.57 2.715 2.245.274 4.504-.498 3.997-2.883-.52-1.947-4.597-2.421-7.372-4.504-2.817-1.892-3.477-6.489-1.162-9.115.771-.971 2.087-1.697 3.468-2.045l1.44-.186c2.766-.056 4.495.674 5.764 2.091.353.358.642.744 1.18 1.58-1.473.94-1.468.93-3.578 2.297-.451-.971-1.2-1.58-1.99-1.845-1.227-.372-2.775.032-3.096 1.33-.111.399-.088.77.089 1.43.497 1.135 2.166 1.628 3.663 2.315 4.309 1.748 5.764 3.622 6.121 5.852.345 1.92-.083 3.166-.148 3.352z" fill="#F0DB4F"/></symbol><symbol fill="none" viewBox="0 0 24 24" id="link_icon" xmlns="http://www.w3.org/2000/svg"><path d="M7 17c-1.383 0-2.562-.488-3.537-1.463C2.488 14.562 2.001 13.383 2 12c0-1.383.487-2.562 1.463-3.537C4.439 7.488 5.618 7 7 7h3c.283 0 .521.096.713.288.192.192.288.43.287.712 0 .283-.097.52-.288.713A.957.957 0 0110 9H7c-.833 0-1.542.292-2.125.875A2.893 2.893 0 004 12c0 .833.292 1.542.875 2.125A2.893 2.893 0 007 15h3c.283 0 .521.096.713.288.192.192.288.43.287.712 0 .283-.097.52-.288.713A.957.957 0 0110 17H7zm2-4a.965.965 0 01-.712-.288A.972.972 0 018 12c0-.283.095-.52.288-.712A.97.97 0 019 11h6c.283 0 .521.096.713.288.192.192.288.43.287.712 0 .283-.097.52-.288.713A.957.957 0 0115 13H9zm5 4a.965.965 0 01-.712-.288A.973.973 0 0113 16c0-.283.095-.52.288-.712A.97.97 0 0114 15h3c.833 0 1.542-.292 2.125-.875A2.893 2.893 0 0020 12c0-.833-.292-1.542-.875-2.125A2.893 2.893 0 0017 9h-3a.965.965 0 01-.712-.288A.973.973 0 0113 8c0-.283.095-.52.288-.712A.97.97 0 0114 7h3c1.383 0 2.563.488 3.538 1.463.975.975 1.463 2.154 1.462 3.537 0 1.383-.488 2.562-1.463 3.538-.975.976-2.154 1.463-3.537 1.462h-3z" fill="currentColor"/></symbol><symbol fill="none" viewBox="0 0 61 61" id="next_icon" xmlns="http://www.w3.org/2000/svg"><path d="M30.5 0C13.677 0 0 13.677 0 30.5S13.677 61 30.5 61a30.406 30.406 0 0014.678-3.765L23.066 26.354v17.442h-3.241V19.92h3.24l24.067 36.124C55.472 50.61 61 41.223 61 30.5 61 13.677 47.323 0 30.5 0zm10.532 40.317l-3.574-5.385V19.92h3.574v20.397z" fill="#000"/></symbol><symbol fill="none" viewBox="0 0 70 70" id="node_icon" xmlns="http://www.w3.org/2000/svg"><path d="M62.522 44.16a.904.904 0 01-.456-.123l-1.449-.857c-.216-.121-.11-.164-.04-.19.29-.1.348-.123.656-.297.032-.018.074-.012.108.008l1.113.661a.144.144 0 00.134 0l4.34-2.505a.135.135 0 00.067-.117v-5.01a.139.139 0 00-.067-.12l-4.339-2.503a.139.139 0 00-.134 0l-4.338 2.504a.143.143 0 00-.068.12v5.008c0 .049.026.094.068.116l1.189.688c.645.322 1.04-.058 1.04-.44v-4.946c0-.07.057-.124.126-.124h.551c.068 0 .125.055.125.124v4.947c0 .86-.468 1.354-1.285 1.354-.25 0-.448 0-1-.271l-1.138-.655a.917.917 0 01-.455-.792v-5.01c0-.325.174-.628.455-.79l4.34-2.509a.954.954 0 01.913 0l4.34 2.509a.916.916 0 01.456.79v5.01a.92.92 0 01-.456.792l-4.34 2.506a.904.904 0 01-.456.122zm1.34-3.452c-1.9 0-2.297-.872-2.297-1.603a.125.125 0 01.126-.125h.56a.125.125 0 01.126.106c.084.571.337.86 1.486.86.914 0 1.303-.207 1.303-.693 0-.28-.11-.487-1.531-.627-1.188-.117-1.922-.38-1.922-1.33 0-.876.738-1.399 1.975-1.399 1.39 0 2.079.483 2.166 1.52a.13.13 0 01-.033.095.131.131 0 01-.092.04h-.564a.125.125 0 01-.122-.098c-.136-.601-.464-.793-1.356-.793-.998 0-1.114.348-1.114.608 0 .316.137.407 1.485.586 1.334.176 1.968.426 1.968 1.364 0 .947-.788 1.49-2.163 1.49m-10.28-3.286a.557.557 0 00.278-.482v-1.287a.556.556 0 00-.277-.48l-4.574-2.656a.557.557 0 00-.557-.001l-4.603 2.657a.557.557 0 00-.278.481v5.314c0 .2.107.384.281.483l4.574 2.606a.555.555 0 00.545.003l2.766-1.538a.278.278 0 00.004-.484l-4.631-2.657a.277.277 0 01-.14-.241v-1.666c0-.1.053-.19.138-.24l1.442-.831a.277.277 0 01.278 0l1.442.831a.278.278 0 01.14.24v1.31a.277.277 0 00.417.241l2.756-1.603m-4.92-.25a.11.11 0 01.106 0l.883.51c.033.02.053.055.053.093v1.02c0 .038-.02.073-.053.092l-.883.51a.106.106 0 01-.107 0l-.883-.51a.106.106 0 01-.053-.092v-1.02c0-.038.02-.073.053-.093l.883-.51zm-11.978 2.122a.14.14 0 01-.07.12l-1.58.912a.138.138 0 01-.139 0l-1.58-.911a.14.14 0 01-.07-.12V37.47c0-.05.027-.096.07-.121l1.58-.912a.135.135 0 01.14 0l1.58.912a.141.141 0 01.07.12v1.826h-.001zm.427-13.516a.28.28 0 00-.413.242v7.063a.197.197 0 01-.097.169.196.196 0 01-.195 0l-1.153-.665a.557.557 0 00-.555 0l-4.603 2.657a.557.557 0 00-.279.482v5.315c0 .198.106.382.278.482l4.604 2.658c.171.1.384.1.556 0l4.605-2.658a.558.558 0 00.277-.482v-13.25a.558.558 0 00-.285-.485l-2.74-1.528m-16.202 6.71a.554.554 0 01.556 0l4.604 2.655c.171.1.277.284.277.482v5.317a.557.557 0 01-.277.482l-4.603 2.658a.558.558 0 01-.557 0l-4.602-2.658a.559.559 0 01-.277-.482v-5.317c0-.198.106-.382.277-.482l4.602-2.656m-8.371 3.094c0-.2-.105-.384-.278-.483L7.66 32.451a.542.542 0 00-.254-.073H7.36a.544.544 0 00-.254.072L2.502 35.1a.557.557 0 00-.278.483l.01 7.131c0 .1.052.192.139.24a.266.266 0 00.276 0l2.734-1.566a.56.56 0 00.279-.482v-3.332c0-.199.105-.382.277-.482l1.165-.67a.543.543 0 01.555 0l1.164.67c.172.1.278.283.278.482v3.332c0 .198.107.38.278.482l2.735 1.566a.278.278 0 00.415-.24l.01-7.131" fill="#83CD29"/></symbol><symbol fill="none" viewBox="0 0 60 60" id="react_icon" xmlns="http://www.w3.org/2000/svg"><path d="M30 35.344a5.344 5.344 0 100-10.688 5.344 5.344 0 000 10.688z" fill="#61DAFB"/><path d="M50.297 21.188a52.272 52.272 0 00-3.234-1.079c.28-1.125.515-2.25.703-3.328.984-6.187-.094-10.547-3.094-12.234-.89-.516-1.875-.75-3-.75-3.281 0-7.453 2.437-11.672 6.515-4.219-4.078-8.39-6.515-11.672-6.515-1.125 0-2.11.234-3 .75-3 1.734-4.078 6.094-3.094 12.234.188 1.078.422 2.203.704 3.328-1.126.328-2.204.657-3.235 1.078C3.843 23.438.656 26.532.656 30c0 3.469 3.235 6.563 9.047 8.813 1.031.374 2.11.75 3.235 1.078a47.05 47.05 0 00-.704 3.328c-.984 6.187.094 10.547 3.094 12.234.89.516 1.875.75 3 .75 3.328 0 7.5-2.437 11.672-6.516 4.219 4.079 8.39 6.516 11.672 6.516 1.125 0 2.11-.234 3-.75 3-1.734 4.078-6.094 3.094-12.234a46.995 46.995 0 00-.703-3.328c1.124-.328 2.203-.657 3.234-1.078 5.86-2.25 9.047-5.344 9.047-8.813 0-3.469-3.188-6.563-9.047-8.813zM43.359 6.89c1.922 1.125 2.578 4.593 1.782 9.515-.141.985-.375 2.016-.657 3.094-2.437-.563-5.015-.938-7.734-1.172a67.642 67.642 0 00-4.875-6.094c3.469-3.421 6.984-5.765 9.844-5.765.61 0 1.172.14 1.64.422zm-5.25 27.797c-.843 1.5-1.828 3-2.859 4.5-1.734.14-3.469.187-5.25.187-1.828 0-3.563-.047-5.25-.188-1.031-1.5-1.969-3-2.813-4.5A75.535 75.535 0 0119.453 30a75.535 75.535 0 012.485-4.688c.843-1.5 1.828-3 2.859-4.5a64.724 64.724 0 015.25-.187c1.828 0 3.562.047 5.25.188 1.031 1.5 1.969 3 2.812 4.5A75.533 75.533 0 0140.594 30c-.797 1.547-1.594 3.094-2.485 4.688zM42 33.14c.703 1.64 1.266 3.234 1.781 4.828-1.593.375-3.281.656-5.062.89.562-.89 1.172-1.828 1.687-2.812.563-.984 1.078-1.969 1.594-2.906zM30 45.844a52.721 52.721 0 01-3.234-3.89c1.078.046 2.156.093 3.234.093 1.078 0 2.156-.047 3.234-.094A52.721 52.721 0 0130 45.843zm-8.719-7.032c-1.781-.234-3.468-.515-5.062-.89.515-1.547 1.078-3.188 1.781-4.828.516.937 1.031 1.922 1.594 2.86.562 1.03 1.125 1.921 1.687 2.858zM18 26.86c-.703-1.64-1.266-3.234-1.781-4.828 1.593-.375 3.281-.656 5.062-.89-.562.89-1.172 1.828-1.687 2.812-.563.985-1.078 1.969-1.594 2.906zm12-12.703a52.699 52.699 0 013.234 3.89A74.455 74.455 0 0030 17.954c-1.078 0-2.156.047-3.234.094A52.699 52.699 0 0130 14.157zM40.406 24l-1.687-2.813c1.781.235 3.468.516 5.062.891-.515 1.547-1.078 3.188-1.781 4.828-.516-.984-1.031-1.968-1.594-2.906zM14.86 16.406c-.796-4.922-.14-8.39 1.782-9.515.468-.282 1.03-.422 1.64-.422 2.813 0 6.328 2.297 9.844 5.765-1.64 1.782-3.281 3.844-4.875 6.094a63.738 63.738 0 00-7.734 1.172c-.282-1.078-.47-2.11-.657-3.094zM3.281 30c0-2.203 2.672-4.547 7.36-6.281a28.075 28.075 0 013-.985 68.33 68.33 0 002.812 7.313c-1.125 2.484-2.11 4.922-2.812 7.265C7.17 35.438 3.28 32.626 3.28 30zm13.36 23.11c-1.922-1.126-2.578-4.594-1.782-9.516.141-.985.375-2.016.657-3.094 2.437.563 5.015.938 7.734 1.172a67.624 67.624 0 004.875 6.094c-3.469 3.422-6.984 5.765-9.844 5.765-.61 0-1.172-.14-1.64-.422zm28.5-9.516c.797 4.922.14 8.39-1.782 9.515-.468.282-1.03.422-1.64.422-2.813 0-6.328-2.297-9.844-5.765 1.64-1.782 3.281-3.844 4.875-6.094a63.738 63.738 0 007.734-1.172c.282 1.078.47 2.11.657 3.094zm4.218-7.313c-.937.375-1.968.703-3 .985a68.33 68.33 0 00-2.812-7.313c1.125-2.484 2.11-4.922 2.812-7.265 6.47 1.875 10.36 4.687 10.36 7.312 0 2.203-2.719 4.547-7.36 6.281z" fill="#61DAFB"/></symbol><symbol fill="none" viewBox="0 0 50 50" id="redux_icon" xmlns="http://www.w3.org/2000/svg"><path d="M34.644 34.418c-3.515 7.188-9.671 12.023-17.816 13.613-1.249.306-2.53.456-3.816.446-4.688 0-8.985-1.954-11.07-5.153-2.801-4.261-3.755-13.297 5.48-19.98.187 1.02.57 2.418.824 3.246a14.938 14.938 0 00-4.34 5.09c-1.719 3.375-1.527 6.746.508 9.863 1.406 2.102 3.633 3.379 6.496 3.77 3.576.452 7.204-.231 10.371-1.954 4.965-2.609 8.274-5.726 10.438-9.988a3.64 3.64 0 01-1.02-2.344 3.563 3.563 0 013.43-3.683h.133a3.574 3.574 0 01.39 7.129l-.008-.055zm11.2-7.89c4.77 5.406 4.898 11.769 3.054 15.46-1.718 3.371-6.25 6.746-12.343 6.746a19.72 19.72 0 01-8.203-1.972 36.703 36.703 0 002.863-2.293 16.227 16.227 0 006.25 1.336c3.945 0 6.933-1.844 8.715-5.215 1.144-2.227 1.21-4.836.129-7.508a17.035 17.035 0 00-6.747-8.145 24.218 24.218 0 00-13.57-4.136h-1.144a3.597 3.597 0 01-3.125 2.164h-.121a3.566 3.566 0 01-.118-7.13h.13a3.517 3.517 0 013.124 1.911h1.02c8.125 0 15.258 3.117 20.086 8.781zm-32.325 8.984c-.066-.649.09-1.301.446-1.848-3.563-6.172-5.469-13.996-2.543-22.14C13.519 5.401 18.8 1.265 24.527 1.265c6.11 0 12.473 5.347 13.235 15.652-.953-.316-2.344-.781-3.18-.953-.207-3.371-3.055-11.77-9.8-11.645-2.419.067-5.981 1.211-7.813 3.563a17.067 17.067 0 00-3.766 9.863c-.43 4.94.73 9.89 3.309 14.125.142-.052.294-.073.445-.062h.125a3.563 3.563 0 11.129 7.125h-.13A3.578 3.578 0 0113.52 35.5v.012z" fill="#764ABC"/></symbol><symbol fill="none" viewBox="0 0 24 24" id="rocket_icon" xmlns="http://www.w3.org/2000/svg"><path fill-rule="evenodd" clip-rule="evenodd" d="M18.165 2.765l.255.032c.674.093 1.566.218 2.071.724.414.413.573 1.085.668 1.685l.056.386c.126.91.159 2.102-.056 3.426-.424 2.613-1.815 5.731-5.308 8.145-.019.188-.02.378-.016.568l.01.284c.016.437.032.874-.09 1.298-.19.66-.867 1.095-1.5 1.407l-.31.147-.4.176c-.748.318-1.758.644-2.391.01-.38-.379-.536-.935-.663-1.488l-.047-.207a7.997 7.997 0 00-.2-.774c-.05-.147-.104-.295-.162-.445a2.982 2.982 0 01-.203.225c-.345.345-.86.586-1.284.755-.463.183-.987.343-1.472.475l-.249.066-.477.119-.432.1-.517.11-.323.063a1.01 1.01 0 01-1.177-1.177l.086-.431.154-.698.124-.51.094-.36c.132-.484.292-1.008.476-1.47.168-.425.409-.94.754-1.285l.08-.077-.064-.026a8.038 8.038 0 00-.519-.177l-.277-.085c-.694-.21-1.436-.436-1.897-.898-.56-.559-.371-1.41-.101-2.118l.11-.274.177-.4.147-.31c.312-.632.747-1.309 1.407-1.499.35-.1.714-.106 1.08-.096l.22.007c.286.01.571.021.85-.006 2.414-3.494 5.532-4.885 8.145-5.309a11.8 11.8 0 013.171-.088zM8.353 15.44a1 1 0 00-1.1-.06l-.11.074-.093.083-.125.158c-.26.376-.408.896-.523 1.382l-.108.468-.051.213.191-.046.418-.096c.578-.135 1.219-.31 1.613-.665a1 1 0 00.088-1.314l-.082-.094-.024-.023-.094-.08zm7.183-6.974a2 2 0 10-2.828 2.827 2 2 0 002.828-2.827z" fill="currentColor"/></symbol><symbol fill="none" viewBox="0 0 60 60" id="sass_icon" xmlns="http://www.w3.org/2000/svg"><path fill-rule="evenodd" clip-rule="evenodd" d="M.571 26.323c0 .33.097.547.152.759.354 1.374 1.116 2.554 2.02 3.63 1.287 1.534 2.863 2.769 4.478 3.93 1.4 1.007 2.83 1.991 4.236 2.99.241.172.47.37.732.58-.226.122-.413.23-.608.328-1.856.941-3.641 1.997-5.287 3.275-.992.77-1.951 1.59-2.628 2.66-1.09 1.72-1.476 3.554-.664 5.512.237.572.6 1.066 1.11 1.432.165.118.35.235.544.28.496.118 1.002.194 1.504.286H7.58c1.573-.14 3.004-.68 4.297-1.572 2.021-1.395 3.383-3.265 3.968-5.666.426-1.744.443-3.49-.058-5.228a5.465 5.465 0 00-.166-.475c-.061-.156-.133-.308-.217-.502l3.223-1.854.048.041c-.058.192-.12.383-.174.577-.383 1.399-.637 2.822-.546 4.274.098 1.546.53 2.994 1.435 4.287.732 1.045 2.477 1.084 3.255.035.276-.373.544-.762.745-1.178.525-1.085 1.012-2.19 1.514-3.286l.088-.201c-.036.52-.079.975-.098 1.432-.03.713.012 1.422.256 2.1.208.58.563 1.014 1.228 1.09.454.052.817-.156 1.151-.42.518-.409.947-.92 1.261-1.5.892-1.636 1.806-3.262 2.614-4.94.874-1.815 1.638-3.682 2.45-5.527l.134-.328c.191.754.325 1.492.57 2.19.287.81.64 1.602 1.026 2.37.182.364.161.6-.091.905-1.058 1.275-2.097 2.565-3.137 3.854-.23.285-.46.574-.651.885a1.735 1.735 0 00-.225.64.814.814 0 00.648.923c.417.09.844.12 1.27.09 1.451-.106 2.77-.615 3.934-1.479 1.51-1.118 1.995-2.645 1.63-4.454-.1-.49-.274-.968-.444-1.44-.077-.214-.082-.363.057-.562 1.207-1.724 2.238-3.552 3.197-5.423.038-.074.077-.147.144-.226.31 1.617.779 3.176 1.617 4.59-.428.412-.851.786-1.234 1.197-.843.907-1.575 1.891-1.956 3.092-.164.517-.29 1.043-.217 1.596.113.858.816 1.416 1.66 1.22 1.807-.418 3.367-1.269 4.506-2.777.767-1.015.837-2.148.516-3.334-.088-.323-.193-.64-.305-1.01.445-.138.88-.304 1.33-.407 2.333-.532 4.642-.44 6.891.403 1.313.492 2.374 1.316 3.003 2.612.768 1.584.343 3.087-1.15 4.088-.139.093-.298.167-.413.283a.406.406 0 00-.096.314c.01.058.162.13.25.13.49-.005.888-.262 1.27-.526.957-.663 1.656-1.554 1.806-2.727l.03-.088-.036-.764c-.015-.044.01-.088.007-.121-.203-1.709-1.116-3.034-2.444-4.073-1.537-1.202-3.352-1.697-5.272-1.775a11.907 11.907 0 00-4.578.704c-.42.153-.837.333-1.26.503-.056-.102-.117-.2-.168-.302-.434-.89-.96-1.739-1.076-2.758-.082-.723-.184-1.446-.012-2.162.166-.689.382-1.366.584-2.045.105-.35.031-.545-.302-.703a1.341 1.341 0 00-.369-.12 5.676 5.676 0 00-2.424.18c-.28.081-.485.239-.548.55-.035.179-.108.35-.159.526-.207.733-.354 1.48-.69 2.177-.84 1.751-1.8 3.436-2.783 5.108-.107.18-.219.358-.353.577-.345-.722-.713-1.37-.825-2.13-.126-.858-.225-1.715-.011-2.567.159-.636.366-1.26.558-1.887.09-.298.048-.455-.222-.612-.136-.08-.29-.15-.444-.172a5.456 5.456 0 00-2.51.205c-.254.082-.388.247-.466.51-.228.774-.423 1.567-.745 2.303-1.3 2.982-2.638 5.947-3.974 8.913-.279.619-.606 1.217-.92 1.82-.08.152-.196.287-.296.43-.08-.094-.11-.159-.11-.224.003-.38-.043-.773.03-1.141.223-1.115.47-2.224.74-3.328.22-.912.476-1.816.72-2.722.083-.303.084-.587-.134-.842-.366-.427-1.131-.52-1.585-.192l-.2.114.038-.324c.096-.693.115-1.384-.075-2.067-.237-.851-.845-1.34-1.728-1.314a3.71 3.71 0 00-1.225.233c-1.602.628-2.835 1.74-3.884 3.079a1.215 1.215 0 01-.355.307c-1.356.751-2.716 1.494-4.076 2.24l-1.513.828c-.406-.387-.775-.788-1.194-1.13-1.278-1.042-2.577-2.058-3.864-3.09-1.141-.913-2.246-1.864-3.092-3.074-.63-.9-1.035-1.885-1.074-2.998-.049-1.418.353-2.713 1.075-3.92.924-1.543 2.183-2.781 3.568-3.903 1.465-1.186 3.05-2.193 4.691-3.112 2.298-1.286 4.66-2.424 7.194-3.175 2.598-.77 5.234-1.212 7.952-.904 1.07.12 2.107.365 3.06.888.73.4 1.328.923 1.607 1.742.275.805.266 1.621.076 2.44-.387 1.656-1.294 3.021-2.435 4.241-1.873 2-4.156 3.362-6.727 4.262a18.503 18.503 0 01-4.578.976c-1.279.108-2.531-.006-3.743-.45-.802-.296-1.5-.747-2.062-1.401-.1-.117-.229-.244-.416-.134-.183.107-.215.282-.154.458.103.294.198.6.357.862.402.659.988 1.136 1.633 1.546 1.239.788 2.624 1.053 4.06 1.114 2.178.094 4.304-.231 6.4-.816 2.992-.834 5.593-2.308 7.68-4.633 1.737-1.936 2.978-4.12 3.243-6.759.13-1.287-.008-2.549-.61-3.723-.655-1.273-1.694-2.22-2.937-2.871-1.81-.95-3.764-1.502-5.781-1.502h-2.02c-2.443 0-4.804.7-7.099 1.534a48.753 48.753 0 00-5.094 2.205c-3.601 1.8-6.955 3.97-9.71 6.953-1.373 1.486-2.535 3.127-3.203 5.058a18.98 18.98 0 00-.52 1.756m13.049 16.88c-.157 2.09-1.104 3.786-2.652 5.158-.871.772-1.87 1.32-3.033 1.514-.422.07-.854.087-1.263-.088-.584-.25-.715-.767-.726-1.32-.017-.879.29-1.673.713-2.43.551-.986 1.36-1.738 2.222-2.44 1.36-1.107 2.835-2.044 4.345-2.928l.114-.047c.233.863.344 1.715.28 2.582zm11.792-9.083a15.76 15.76 0 01-.443 1.982c-.674 2.24-1.54 4.41-2.476 6.55-.172.396-.424.758-.643 1.133a.789.789 0 01-.133.157c-.27.267-.528.253-.664-.097-.16-.407-.258-.842-.342-1.273-.057-.29-.043-.593-.061-.89.018-2.106.66-4.02 1.751-5.802.45-.735.94-1.436 1.687-1.9.232-.145.484-.257.747-.332.399-.112.643.073.577.472zm8.046 10.25l2.892-3.376c.12 1.254-2.011 3.757-2.892 3.377zm9.236-2.271c-.205.117-.427.201-.637.31-.191.099-.255-.002-.26-.167a1.12 1.12 0 01.043-.338 7.27 7.27 0 012.178-3.509l.075-.038a3.098 3.098 0 01-1.4 3.742z" fill="#CB6699"/></symbol><symbol fill="none" viewBox="0 0 20 20" id="tg_icon" xmlns="http://www.w3.org/2000/svg"><g clip-path="url(#qclip0_63_42)"><path d="M10 0c5.523 0 10 4.477 10 10s-4.477 10-10 10S0 15.523 0 10 4.477 0 10 0zm4.442 6c-.381.007-.966.207-3.779 1.362a485.012 485.012 0 00-5.907 2.512c-.48.189-.731.373-.753.553-.044.346.46.453 1.094.657.517.166 1.213.36 1.575.368.328.007.694-.127 1.098-.4 2.76-1.84 4.184-2.77 4.273-2.789.063-.014.15-.032.21.02.059.052.053.15.046.177-.05.211-2.641 2.538-2.79 2.691l-.072.072c-.55.543-1.105.898-.147 1.521.866.563 1.37.922 2.26 1.5.57.368 1.017.805 1.605.752.271-.025.55-.276.693-1.026.335-1.77.995-5.608 1.147-7.19.01-.131.004-.263-.017-.393a.42.42 0 00-.144-.27c-.121-.098-.309-.118-.392-.117z" fill="currentColor"/></g><defs><clipPath id="qclip0_63_42"><path fill="currentColor" d="M0 0h20v20H0z"/></clipPath></defs></symbol><symbol fill="none" viewBox="0 0 33 33" id="tools_icon" xmlns="http://www.w3.org/2000/svg"><g clip-path="url(#rclip0_32_46)"><path d="M.848 26.91a2.998 2.998 0 002.122 5.12 2.99 2.99 0 002.122-.878l9.85-9.85-4.244-4.242-9.85 9.85zM25.466 8.654l4.286-2.218L32 2.094 29.906 0l-4.342 2.248-2.218 4.286-5.224 5.224 2.12 2.12 5.224-5.224zm.938 11.386c-.136-.008-.266-.04-.404-.04-.732 0-1.426.15-2.074.39L11.61 8.074C11.85 7.426 12 6.732 12 6c0-.138-.032-.268-.04-.404C11.748 2.474 9.176 0 6 0c-.924 0-1.79.226-2.572.6l3.986 3.986c.21.21.354.458.45.72.262.71.12 1.536-.45 2.108C7.024 7.804 6.512 8 6 8c-.236 0-.47-.052-.694-.136a1.984 1.984 0 01-.72-.45L.6 3.428A5.937 5.937 0 000 6c0 3.176 2.474 5.748 5.596 5.96.136.008.266.04.404.04.732 0 1.426-.15 2.074-.39L20.39 23.926A5.95 5.95 0 0020 26c0 .138.032.268.04.404C20.252 29.526 22.824 32 26 32c.924 0 1.79-.226 2.572-.6l-3.986-3.986c-.2-.204-.354-.45-.45-.72a1.995 1.995 0 01.45-2.108c.39-.39.902-.586 1.414-.586.236 0 .47.052.694.136.262.098.51.24.72.45l3.986 3.986c.374-.782.6-1.648.6-2.572 0-3.176-2.474-5.748-5.596-5.96z" fill="currentColor"/></g><defs><clipPath id="rclip0_32_46"><path fill="currentColor" d="M0 0h32.324v32.03H0z"/></clipPath></defs></symbol><symbol fill="none" viewBox="0 0 49 49" id="ts_icon" xmlns="http://www.w3.org/2000/svg"><path d="M0 24.414v24.414h48.828V0H0v24.414zm39.348-1.953a6.078 6.078 0 013.054 1.758c.453.471.847.996 1.172 1.562 0 .063-2.11 1.489-3.394 2.285-.047.032-.235-.171-.442-.48a2.77 2.77 0 00-2.293-1.379c-1.48-.102-2.433.676-2.425 1.953-.013.318.06.634.21.914.325.676.93 1.078 2.829 1.899 3.496 1.504 4.992 2.496 5.922 3.906 1.038 1.562 1.269 4.086.566 5.953-.781 2.031-2.695 3.41-5.402 3.867a14.972 14.972 0 01-3.72-.039 8.984 8.984 0 01-4.956-2.558c-.45-.496-1.325-1.79-1.27-1.883.143-.106.293-.201.45-.285l1.796-1.032 1.403-.812.293.433a6.556 6.556 0 001.851 1.774c1.563.82 3.696.707 4.75-.242a2.121 2.121 0 00.27-2.703c-.39-.543-1.172-1-3.356-1.954-2.52-1.086-3.605-1.757-4.597-2.828a6.439 6.439 0 01-1.34-2.441 9.77 9.77 0 01-.086-3.125c.52-2.434 2.344-4.133 5.008-4.637a12.366 12.366 0 013.707.102v-.008zm-11.461 2.047v2h-6.34v18.058H17.05V26.504h-6.356V24.55c-.017-.673.002-1.345.055-2.016.023-.031 3.906-.047 8.594-.039h8.52l.023 2.012z" fill="#007ACC"/></symbol><symbol fill="none" viewBox="0 0 50 50" id="tw_icon" xmlns="http://www.w3.org/2000/svg"><path d="M25.002 10c-6.667 0-10.833 3.333-12.5 10 2.499-3.333 5.416-4.582 8.749-3.75 1.902.475 3.262 1.855 4.768 3.384C28.469 22.12 31.307 25 37.502 25c6.666 0 10.831-3.332 12.5-10-2.5 3.334-5.417 4.583-8.75 3.75-1.903-.475-3.26-1.854-4.769-3.383-2.449-2.487-5.285-5.366-11.481-5.366zm-12.5 15C5.835 25 1.668 28.332.002 35c2.499-3.334 5.416-4.583 8.749-3.75 1.902.475 3.262 1.854 4.768 3.383 2.45 2.487 5.287 5.366 11.482 5.366 6.667 0 10.832-3.332 12.5-9.999-2.5 3.333-5.416 4.582-8.75 3.75-1.902-.475-3.26-1.855-4.768-3.384C21.535 27.88 18.698 25 12.502 25z" fill="#38B2AC"/></symbol><symbol fill="none" viewBox="0 0 70 70" id="versel_icon" xmlns="http://www.w3.org/2000/svg"><path d="M34.92 31.038c-2.733 0-4.704 1.783-4.704 4.457s2.219 4.457 4.952 4.457c1.652 0 3.108-.654 4.009-1.755l-1.894-1.095c-.5.547-1.26.867-2.115.867-1.186 0-2.193-.62-2.567-1.61h6.937a4.47 4.47 0 00.087-.866c0-2.672-1.97-4.455-4.704-4.455zm-2.342 3.59c.31-.987 1.157-1.609 2.34-1.609 1.186 0 2.033.622 2.34 1.61h-4.68zm29.004-3.59c-2.734 0-4.705 1.783-4.705 4.457s2.219 4.457 4.952 4.457c1.652 0 3.108-.654 4.009-1.755l-1.894-1.095c-.5.547-1.26.867-2.115.867-1.186 0-2.193-.62-2.567-1.61h6.937a4.47 4.47 0 00.087-.866c0-2.672-1.97-4.455-4.704-4.455zm-2.34 3.59c.31-.987 1.156-1.609 2.34-1.609 1.186 0 2.032.622 2.34 1.61h-4.68zm-9.664.867c0 1.486.971 2.476 2.476 2.476 1.02 0 1.785-.463 2.18-1.218l1.9 1.097c-.787 1.312-2.262 2.102-4.08 2.102-2.736 0-4.704-1.783-4.704-4.457s1.97-4.456 4.704-4.456c1.818 0 3.29.79 4.08 2.102l-1.9 1.096c-.395-.755-1.16-1.218-2.18-1.218-1.503 0-2.476.99-2.476 2.476zM70 28.315v11.39h-2.228v-11.39H70zM9.149 27.077l9.148 15.846H0l9.149-15.846zm22.872 1.238L25.161 40.2 18.3 28.315h2.572l4.289 7.428 4.288-7.428h2.572zm14.586 2.971v2.4a2.822 2.822 0 00-.792-.122c-1.439 0-2.476.99-2.476 2.476v3.664h-2.228v-8.418h2.228v2.278c0-1.258 1.463-2.278 3.268-2.278z" fill="#fff"/></symbol></svg>