<svg width="74" height="74" viewBox="0 0 74 74" fill="none" xmlns="http://www.w3.org/2000/svg">
<g clip-path="url(#clip0_2_17)">
<path d="M12.9693 52.146L20.7345 5.3465L65.5504 16.9501L49.6244 61.6289L29.956 61.9653L12.9693 52.146Z" fill="#E44F26"/>
<path d="M30.993 58.0843L46.8872 57.8127L60.4954 19.6322L42.1769 14.8893L30.993 58.0843Z" fill="#F1662A"/>
<path d="M37.7851 31.8533L30.3611 29.9311L31.3367 24.0536L39.2725 26.1083L40.7252 20.4977L26.6578 16.8554L26.4021 18.3968L23.777 34.2131L36.3324 37.4639L37.7851 31.8533ZM34.0126 46.4234L33.9853 46.4241L28.1742 43.1202L28.9333 38.5425L23.3009 37.0842L21.8066 46.0947L32.4739 52.2616L32.5012 52.2609L34.0126 46.4234Z" fill="#EBEBEB"/>
<path d="M37.7617 31.8488L36.309 37.4594L43.2175 39.2482L40.6835 46.3568L33.9878 46.4244L32.4764 52.2619L44.8047 52.051L45.1335 51.1251L50.2755 36.6964L50.8035 35.2256L37.7617 31.8488ZM40.7018 20.4933L39.2492 26.1039L52.801 29.6127L53.2397 28.3821L54.2321 25.6041L54.7565 24.1323L40.7018 20.4933Z" fill="white"/>
</g>
<defs>
<clipPath id="clip0_2_17">
<rect width="60" height="60" fill="white" transform="translate(15.0391) rotate(14.5161)"/>
</clipPath>
</defs>
</svg>
