<svg width="80" height="80" viewBox="0 0 80 80" fill="none" xmlns="http://www.w3.org/2000/svg">
<g clip-path="url(#clip0_2_23)">
<path d="M62.8781 7.51237L26.0577 2.30017C17.0862 1.03019 8.78383 7.27349 7.51386 16.245L2.30166 53.0654C1.03168 62.0369 7.27498 70.3392 16.2465 71.6092L53.0669 76.8214C62.0384 78.0914 70.3407 71.8481 71.6107 62.8766L76.8229 26.0562C78.0929 17.0847 71.8496 8.78235 62.8781 7.51237Z" fill="#0277BD"/>
<path d="M20.4312 29.8537L19.9819 38.6113L39.3346 41.3508L40.5588 32.7029L20.4312 29.8537ZM43.0362 15.1994L21.3514 12.1297L20.9135 20.889L41.8121 23.8473L43.0362 15.1994ZM36.1055 64.16L37.3792 55.1625L37.3398 55.1672L28.0767 51.2034L28.4374 44.2189L19.7562 42.99L19.0456 56.7401L36.0641 64.1654L36.1055 64.16Z" fill="#EBEBEB"/>
<path d="M49.954 42.8547L47.3624 53.9282L37.3488 55.1663L36.0753 64.1632L54.4996 61.7594L54.8363 60.3167L60.0913 37.8374L60.631 35.5449L64.6701 18.2624L43.007 15.1958L41.7828 23.8437L53.9684 25.5687L51.9281 34.3129L40.5292 32.6993L39.305 41.3472L49.954 42.8547Z" fill="white"/>
</g>
<defs>
<clipPath id="clip0_2_23">
<rect width="70" height="70" fill="white" transform="translate(9.81122) rotate(8.0571)"/>
</clipPath>
</defs>
</svg>
