<svg width="61" height="77" viewBox="0 0 61 77" fill="none" xmlns="http://www.w3.org/2000/svg">
<g clip-path="url(#clip0_2_32)">
<path d="M10.8656 68.1114C16.864 69.7187 23.0367 66.1549 24.644 60.1565L27.5557 49.2898L16.6891 46.3781C10.6907 44.7708 4.51794 48.3347 2.91067 54.3331C1.30341 60.3315 4.86722 66.5042 10.8656 68.1114Z" fill="#0ACF83"/>
<path d="M8.73514 32.5972C10.3424 26.5988 16.5151 23.0349 22.5135 24.6422L33.3802 27.5539L27.5568 49.2873L16.6901 46.3755C10.6917 44.7683 7.12787 38.5956 8.73514 32.5972Z" fill="#A259FF"/>
<path d="M14.5564 10.8639C16.1637 4.86546 22.3364 1.30164 28.3348 2.90891L39.2015 5.82062L33.378 27.554L22.5114 24.6422C16.513 23.035 12.9492 16.8623 14.5564 10.8639Z" fill="#F24E1E"/>
<path d="M39.2014 5.81851L50.0681 8.73023C56.0665 10.3375 59.6303 16.5102 58.023 22.5086C56.4158 28.507 50.2431 32.0708 44.2447 30.4636L33.378 27.5518L39.2014 5.81851Z" fill="#FF7262"/>
<path d="M52.1986 44.2445C50.5913 50.2429 44.4186 53.8067 38.4202 52.1995C32.4218 50.5922 28.858 44.4195 30.4652 38.4211C32.0725 32.4227 38.2452 28.8589 44.2436 30.4661C50.242 32.0734 53.8058 38.2461 52.1986 44.2445Z" fill="#1ABCFE"/>
</g>
<defs>
<clipPath id="clip0_2_32">
<rect width="45" height="67.5" fill="white" transform="translate(17.4703) rotate(15)"/>
</clipPath>
</defs>
</svg>
