<svg width="81" height="81" viewBox="0 0 81 81" fill="none" xmlns="http://www.w3.org/2000/svg">
<path d="M40.5 47.7141C44.4843 47.7141 47.7141 44.4843 47.7141 40.5C47.7141 36.5158 44.4843 33.2859 40.5 33.2859C36.5158 33.2859 33.2859 36.5158 33.2859 40.5C33.2859 44.4843 36.5158 47.7141 40.5 47.7141Z" fill="#61DAFB"/>
<path d="M67.9008 28.6031C66.5086 28.0969 65.0531 27.5906 63.5344 27.1477C63.9141 25.6289 64.2304 24.1102 64.4835 22.6546C65.8125 14.3015 64.3571 8.41641 60.3071 6.13828C59.1047 5.44219 57.7758 5.12579 56.2571 5.12579C51.8273 5.12579 46.1952 8.41641 40.5 13.9219C34.8046 8.41641 29.1727 5.12579 24.7429 5.12579C23.2242 5.12579 21.8954 5.44219 20.6929 6.13828C16.6429 8.47969 15.1875 14.3648 16.5164 22.6546C16.7696 24.1102 17.086 25.6289 17.4656 27.1477C15.9469 27.5906 14.4914 28.0336 13.0992 28.6031C5.18905 31.6406 0.885925 35.8173 0.885925 40.5C0.885925 45.1829 5.25234 49.3594 13.0992 52.3969C14.4914 52.9031 15.9469 53.4094 17.4656 53.8523C17.086 55.3711 16.7696 56.8898 16.5164 58.3453C15.1875 66.6984 16.6429 72.5836 20.6929 74.8617C21.8954 75.5579 23.2242 75.8742 24.7429 75.8742C29.2359 75.8742 34.8679 72.5836 40.5 67.0781C46.1952 72.5836 51.8273 75.8742 56.2571 75.8742C57.7758 75.8742 59.1047 75.5579 60.3071 74.8617C64.3571 72.5204 65.8125 66.6352 64.4835 58.3453C64.2304 56.8898 63.9141 55.3711 63.5344 53.8523C65.0531 53.4094 66.5086 52.9664 67.9008 52.3969C75.811 49.3594 80.114 45.1829 80.114 40.5C80.114 35.8173 75.811 31.6406 67.9008 28.6031ZM58.5352 9.30234C61.1296 10.8211 62.0156 15.5039 60.9398 22.1484C60.75 23.4773 60.4336 24.8696 60.0539 26.325C56.7633 25.5656 53.2829 25.0594 49.6125 24.7429C47.4609 21.7054 45.246 18.9844 43.0312 16.5164C47.714 11.8969 52.4602 8.73282 56.3202 8.73282C57.1429 8.73282 57.9023 8.92266 58.5352 9.30234ZM51.4477 46.8281C50.3086 48.8531 48.9796 50.8781 47.5875 52.9031C45.246 53.0929 42.9046 53.1563 40.5 53.1563C38.0321 53.1563 35.6906 53.0929 33.4125 52.9031C32.0202 50.8781 30.7546 48.8531 29.6156 46.8281C28.4133 44.7398 27.2742 42.5883 26.2617 40.5C27.2742 38.4117 28.4133 36.2602 29.6156 34.1719C30.7546 32.1469 32.0835 30.1219 33.4758 28.0969C35.8172 27.9071 38.1585 27.8438 40.5633 27.8438C43.0312 27.8438 45.3727 27.9071 47.6508 28.0969C49.0429 30.1219 50.3086 32.1469 51.4477 34.1719C52.65 36.2602 53.789 38.4117 54.8015 40.5C53.7258 42.5883 52.65 44.6766 51.4477 46.8281ZM56.7 44.7398C57.6492 46.9546 58.4085 49.1063 59.1046 51.2579C56.9531 51.7641 54.675 52.1438 52.2702 52.4602C53.0296 51.2579 53.8523 49.9923 54.5484 48.6633C55.3077 47.3344 56.0039 46.0054 56.7 44.7398ZM40.5 61.8891C38.9812 60.2438 37.5258 58.4719 36.1335 56.6367C37.589 56.7 39.0446 56.7633 40.5 56.7633C41.9554 56.7633 43.411 56.7 44.8664 56.6367C43.4742 58.4719 42.0187 60.2438 40.5 61.8891ZM28.7296 52.3969C26.325 52.0804 24.0469 51.7008 21.8952 51.1946C22.5914 49.1063 23.3508 46.8914 24.3 44.6766C24.996 45.9421 25.6921 47.2711 26.4515 48.5367C27.2109 49.9289 27.9702 51.1313 28.7296 52.3969ZM24.3 36.2602C23.3508 34.0452 22.5914 31.8938 21.8952 29.7423C24.0469 29.236 26.325 28.8563 28.7296 28.5398C27.9702 29.7421 27.1477 31.0079 26.4515 32.3367C25.6921 33.6656 24.996 34.9946 24.3 36.2602ZM40.5 19.111C42.0187 20.7563 43.4742 22.5281 44.8664 24.3633C43.411 24.3 41.9554 24.2367 40.5 24.2367C39.0446 24.2367 37.589 24.3 36.1335 24.3633C37.5258 22.5281 38.9812 20.7563 40.5 19.111ZM54.5484 32.4L52.2702 28.6031C54.675 28.9196 56.9531 29.2992 59.1046 29.8054C58.4085 31.8938 57.6492 34.1086 56.7 36.3235C56.0039 34.9946 55.3077 33.6656 54.5484 32.4ZM20.0602 22.1484C18.9844 15.5039 19.8702 10.8211 22.4648 9.30234C23.0977 8.92266 23.8571 8.73282 24.6796 8.73282C28.4765 8.73282 33.2227 11.8336 37.9687 16.5164C35.7539 18.9211 33.539 21.7054 31.3875 24.7429C27.7171 25.0594 24.2367 25.6289 20.946 26.325C20.5664 24.8696 20.3133 23.4773 20.0602 22.1484ZM4.42968 40.5C4.42968 37.5258 8.03671 34.3617 14.3648 32.0204C15.6304 31.514 17.0227 31.0711 18.4148 30.6914C19.4273 33.8554 20.6929 37.2094 22.2117 40.5633C20.6929 43.9173 19.3641 47.2079 18.4148 50.3719C9.68203 47.8406 4.42968 44.0438 4.42968 40.5ZM22.4648 71.6977C19.8702 70.179 18.9844 65.4961 20.0602 58.8516C20.25 57.5227 20.5664 56.1304 20.946 54.675C24.2367 55.4344 27.7171 55.9406 31.3875 56.2571C33.539 59.2946 35.7539 62.0156 37.9687 64.4836C33.2859 69.1031 28.5398 72.2671 24.6796 72.2671C23.8571 72.2671 23.0977 72.0773 22.4648 71.6977ZM60.9398 58.8516C62.0156 65.4961 61.1296 70.179 58.5352 71.6977C57.9023 72.0773 57.1429 72.2671 56.3202 72.2671C52.5234 72.2671 47.7773 69.1664 43.0312 64.4836C45.246 62.0789 47.4609 59.2946 49.6125 56.2571C53.2829 55.9406 56.7633 55.3711 60.0539 54.675C60.4336 56.1304 60.6867 57.5227 60.9398 58.8516ZM66.6352 48.9798C65.3696 49.486 63.9773 49.9289 62.5852 50.3086C61.5727 47.1446 60.3071 43.7906 58.7883 40.4367C60.3071 37.0829 61.6359 33.7923 62.5852 30.6281C71.3179 33.1594 76.5702 36.9563 76.5702 40.5C76.5702 43.4742 72.9 46.6383 66.6352 48.9798Z" fill="#61DAFB"/>
</svg>
